<?xml version="1.0" encoding="utf-8"?>
<!-- Generator: Adobe Illustrator 16.0.0, SVG Export Plug-In . SVG Version: 6.00 Build 0)  -->
<!DOCTYPE svg PUBLIC "-//W3C//DTD SVG 1.1//EN" "http://www.w3.org/Graphics/SVG/1.1/DTD/svg11.dtd">
<svg version="1.1" id="Layer_1" xmlns="http://www.w3.org/2000/svg" xmlns:xlink="http://www.w3.org/1999/xlink" x="0px" y="0px"
	 width="34px" height="34px" viewBox="0 0 34 34" enable-background="new 0 0 34 34" xml:space="preserve">
<g>
	<g>
		<g>
			<path fill="#15488A" d="M14.036,16.636c1.85,0,3.653-1.122,5.085-3.159c1.261-1.796,2.012-4.018,2.012-5.942
				c0-3.912-3.185-7.096-7.097-7.096c-3.914,0-7.094,3.184-7.094,7.096c0,1.924,0.754,4.146,2.016,5.942
				C10.385,15.514,12.19,16.636,14.036,16.636z M14.036,1.597c3.276,0,5.938,2.665,5.938,5.938c0,1.671-0.689,3.693-1.803,5.277
				c-1.189,1.696-2.696,2.666-4.136,2.666c-1.438,0-2.941-0.97-4.132-2.666C8.79,11.229,8.099,9.206,8.099,7.535
				C8.099,4.261,10.762,1.597,14.036,1.597z"/>
			<path fill="#15488A" d="M17.021,30.655c-0.006-0.016-0.004-0.012-0.004-0.005c-0.028-0.067-0.067-0.13-0.122-0.184
				c-0.22-0.223-0.602-0.223-0.818,0c-0.323,0.313-0.146,0.876,0.283,0.974c0.45,0.102,0.83-0.359,0.665-0.783
				C17.028,30.665,17.028,30.67,17.021,30.655z"/>
			<path fill="#15488A" d="M29.141,20.933c-1.506-1.508-3.502-2.239-5.48-2.195c-1.162-1.439-2.648-2.614-4.315-3.407
				c-0.221-0.105-0.483-0.061-0.656,0.112c-1.396,1.39-3.003,2.125-4.652,2.125c-1.646,0-3.257-0.735-4.648-2.125
				c-0.173-0.173-0.437-0.217-0.659-0.112c-2.079,0.991-3.837,2.539-5.089,4.479c-1.286,1.992-1.963,4.306-1.963,6.686v0.011
				c0,0.163,0.068,0.318,0.19,0.429c3.338,3.027,7.662,4.694,12.17,4.694c0.239,0,0.481-0.005,0.718-0.015
				c0.319-0.012,0.566-0.281,0.553-0.601c-0.008-0.318-0.281-0.567-0.6-0.554c-0.22,0.007-0.445,0.013-0.67,0.013
				c-4.136,0-8.103-1.499-11.2-4.224c0.045-2.071,0.659-4.076,1.776-5.813c1.062-1.648,2.527-2.984,4.26-3.884
				c1.547,1.423,3.324,2.173,5.164,2.173c1.843,0,3.621-0.75,5.165-2.173c1.149,0.595,2.189,1.393,3.065,2.344
				c-1.379,0.289-2.692,0.967-3.763,2.036c-2.93,2.932-2.93,7.704,0,10.636c1.469,1.466,3.393,2.199,5.317,2.199
				c1.928,0,3.854-0.733,5.319-2.199c1.422-1.421,2.203-3.31,2.203-5.319C31.342,24.242,30.563,22.353,29.141,20.933z M29.42,23.217
				l-3.891,3.891l-0.873-0.873l4.057-4.057C28.984,22.504,29.221,22.852,29.42,23.217z M27.894,21.36l-4.055,4.056l-0.874-0.872
				l3.888-3.888C27.217,20.853,27.566,21.088,27.894,21.36z M24.453,27.666l-3.032,0.987l0.984-3.032L24.453,27.666z M28.323,30.75
				c-2.48,2.482-6.519,2.482-9.002,0c-2.479-2.48-2.479-6.519,0-8.999c1.244-1.241,2.873-1.861,4.5-1.861
				c0.637,0,1.269,0.095,1.88,0.283l-3.962,3.961c-0.067,0.064-0.112,0.145-0.141,0.231l-1.634,5.012
				c-0.065,0.207-0.012,0.435,0.145,0.588c0.108,0.111,0.257,0.169,0.408,0.169c0.062,0,0.12-0.009,0.179-0.027l5.011-1.631
				c0.089-0.029,0.166-0.076,0.23-0.141l3.967-3.967c0.187,0.604,0.284,1.233,0.284,1.881C30.188,27.95,29.526,29.548,28.323,30.75z
				"/>
		</g>
	</g>
</g>
</svg>
