<?xml version="1.0" encoding="utf-8"?>
<!-- Generator: Adobe Illustrator 16.0.0, SVG Export Plug-In . SVG Version: 6.00 Build 0)  -->
<!DOCTYPE svg PUBLIC "-//W3C//DTD SVG 1.1//EN" "http://www.w3.org/Graphics/SVG/1.1/DTD/svg11.dtd">
<svg version="1.1" id="Layer_1" xmlns="http://www.w3.org/2000/svg" xmlns:xlink="http://www.w3.org/1999/xlink" x="0px" y="0px"
	 width="22px" height="22px" viewBox="0 0 22 22" enable-background="new 0 0 22 22" xml:space="preserve">
<g>
	<circle fill="#a55eea" cx="10.99" cy="10.999" r="10.683"/>
	<g>
		<path fill-rule="evenodd" clip-rule="evenodd" fill="#FFFFFF" d="M18.975,10.948c-0.015,1.349-0.3,2.58-0.907,3.731
			c-0.226,0.435-0.746,0.517-1.032,0.171c-0.215-0.257-0.168-0.521-0.025-0.799c0.496-0.961,0.757-1.988,0.729-3.066
			c-0.073-2.637-1.273-4.612-3.555-5.934c-0.071-0.041-0.146-0.076-0.217-0.115c-0.372-0.2-0.5-0.538-0.326-0.863
			c0.167-0.313,0.511-0.41,0.873-0.231c0.995,0.488,1.854,1.155,2.564,2.003C18.329,7.333,18.946,9.058,18.975,10.948z"/>
		<path fill-rule="evenodd" clip-rule="evenodd" fill="#FFFFFF" d="M4.5,6.94c0.474,0.007,0.702,0.452,0.52,0.931
			C4.776,8.516,4.499,9.163,4.363,9.834c-0.553,2.771,0.88,5.729,3.366,7.07C7.819,16.953,7.91,17,8,17.049
			c0.393,0.213,0.525,0.551,0.347,0.881c-0.173,0.321-0.516,0.403-0.903,0.212c-1.078-0.534-2.011-1.263-2.728-2.231
			c-1.968-2.663-2.226-5.512-0.839-8.514C4,7.127,4.177,6.934,4.5,6.94z"/>
		<ellipse fill-rule="evenodd" clip-rule="evenodd" fill="#FFFFFF" cx="11.933" cy="3.636" rx="0.63" ry="0.613"/>
		
			<ellipse transform="matrix(-0.0327 0.9995 -0.9995 -0.0327 28.7382 8.914)" fill-rule="evenodd" clip-rule="evenodd" fill="#FFFFFF" cx="10.056" cy="18.363" rx="0.612" ry="0.633"/>
	</g>
	<circle fill="#FFFFFF" cx="10.989" cy="10.999" r="2.52"/>
</g>
</svg>
