<?xml version="1.0" encoding="utf-8"?>
<!-- Generator: Adobe Illustrator 16.0.0, SVG Export Plug-In . SVG Version: 6.00 Build 0)  -->
<!DOCTYPE svg PUBLIC "-//W3C//DTD SVG 1.1//EN" "http://www.w3.org/Graphics/SVG/1.1/DTD/svg11.dtd">
<svg version="1.1" id="Layer_1" xmlns="http://www.w3.org/2000/svg" xmlns:xlink="http://www.w3.org/1999/xlink" x="0px" y="0px"
	 width="34px" height="34px" viewBox="0 0 34 34" enable-background="new 0 0 34 34" xml:space="preserve">
<path opacity="0.7" fill="#15488A" d="M0.947,25.562l-0.032,6.526c0,0.368,0.134,0.737,0.402,1.006c0.269,0.268,0.604,0.4,0.969,0.4
	l6.497-0.033c0.367,0,0.703-0.136,0.968-0.403l22.429-22.43c0.538-0.535,0.538-1.406,0-1.976l-6.423-6.493
	c-0.537-0.537-1.406-0.537-1.977,0l-4.489,4.519L1.35,24.588C1.113,24.856,0.947,25.192,0.947,25.562L0.947,25.562z M24.785,5.104
	l4.521,4.521l-2.542,2.543l-4.52-4.519L24.785,5.104L24.785,5.104z M3.726,26.161L20.265,9.625l4.521,4.519L8.245,30.646
	l-4.553,0.032L3.726,26.161L3.726,26.161z"/>
</svg>
