<?xml version="1.0" encoding="utf-8"?>
<!-- Generator: Adobe Illustrator 16.0.0, SVG Export Plug-In . SVG Version: 6.00 Build 0)  -->
<!DOCTYPE svg PUBLIC "-//W3C//DTD SVG 1.1//EN" "http://www.w3.org/Graphics/SVG/1.1/DTD/svg11.dtd">
<svg version="1.1" id="Layer_1" xmlns="http://www.w3.org/2000/svg" xmlns:xlink="http://www.w3.org/1999/xlink" x="0px" y="0px"
	 width="34px" height="34px" viewBox="0 0 34 34" enable-background="new 0 0 34 34" xml:space="preserve">
<g>
	<path fill="#15488A" d="M17.195,22.944l-3.456-1.766V20.81c1.546-0.844,2.635-2.234,3.241-4.145
		c0.921-0.49,1.512-1.441,1.512-2.508v-0.949c0-0.881-0.412-1.695-1.096-2.232c-0.593-3.592-3.099-5.412-7.458-5.412
		c-0.206,0-0.407,0.008-0.604,0.023C8.512,5.653,7.311,5.583,6.27,4.883C5.881,4.62,5.589,4.366,5.4,4.129
		C5.082,3.721,4.545,3.579,4.068,3.776C3.593,3.971,3.313,4.448,3.372,4.959c0.04,0.355,0.1,0.77,0.188,1.223
		c0.186,0.926,0.186,0.926-0.074,1.48C3.393,7.872,3.27,8.127,3.131,8.473c-0.314,0.77-0.538,1.615-0.668,2.516
		c-0.673,0.535-1.076,1.348-1.076,2.219v0.949c0,1.066,0.59,2.018,1.508,2.508c0.607,1.911,1.696,3.301,3.243,4.145v0.357
		l-3.582,1.768c-1.308,0.711-2.12,2.08-2.12,3.57v1.258c0,0.764,0,2.549,9.503,2.549s9.503-1.785,9.503-2.549v-1.182
		C19.441,25.03,18.58,23.638,17.195,22.944z M17.541,27.548c-0.593,0.361-3.005,0.863-7.602,0.863c-4.598,0-7.009-0.502-7.603-0.863
		v-1.043c0-0.795,0.434-1.523,1.096-1.883l3.664-1.807c0.572-0.279,0.943-0.873,0.943-1.51v-1.713l-0.576-0.248
		c-1.441-0.621-2.378-1.807-2.865-3.624l-0.135-0.506l-0.5-0.156c-0.396-0.125-0.676-0.496-0.676-0.902v-0.949
		c0-0.344,0.196-0.664,0.515-0.832l0.446-0.238l0.051-0.502C4.393,10.743,4.591,9.92,4.89,9.194c0.128-0.309,0.234-0.541,0.321-0.73
		c0.322-0.691,0.44-1.049,0.359-1.781c1.115,0.639,2.459,0.91,3.916,0.799C9.634,7.469,9.785,7.463,9.94,7.463
		c3.558,0,5.295,1.289,5.634,4.18l0.057,0.496l0.444,0.232c0.317,0.17,0.516,0.49,0.516,0.836v0.949c0,0.406-0.28,0.777-0.677,0.9
		l-0.5,0.156l-0.137,0.506c-0.485,1.819-1.423,3.004-2.863,3.625l-0.575,0.248v1.721c0,0.635,0.353,1.209,0.916,1.496l3.587,1.834
		c0.738,0.367,1.199,1.111,1.199,1.938V27.548z"/>
	<path fill="#15488A" d="M20.518,11.568h7.241c0.4,0,0.725-0.323,0.725-0.723s-0.324-0.725-0.725-0.725h-7.241
		c-0.4,0-0.724,0.325-0.724,0.725S20.117,11.568,20.518,11.568z"/>
	<path fill="#15488A" d="M30.656,11.568h0.724c0.4,0,0.724-0.323,0.724-0.723S31.78,10.12,31.38,10.12h-0.724
		c-0.401,0-0.725,0.325-0.725,0.725S30.255,11.568,30.656,11.568z"/>
	<path fill="#15488A" d="M21.242,22.431h-0.725c-0.4,0-0.724,0.325-0.724,0.726s0.323,0.723,0.724,0.723h0.725
		c0.4,0,0.725-0.322,0.725-0.723S21.643,22.431,21.242,22.431z"/>
	<path fill="#15488A" d="M25.258,22.431h-1.449c-0.4,0-0.723,0.325-0.723,0.726s0.322,0.723,0.723,0.723h1.449
		c0.4,0,0.723-0.322,0.723-0.723S25.658,22.431,25.258,22.431z"/>
	<path fill="#15488A" d="M28.548,22.431h-0.724c-0.4,0-0.725,0.325-0.725,0.726s0.324,0.723,0.725,0.723h0.724
		c0.4,0,0.725-0.322,0.725-0.723S28.948,22.431,28.548,22.431z"/>
	<path fill="#15488A" d="M32.563,22.431h-1.448c-0.399,0-0.724,0.325-0.724,0.726s0.324,0.723,0.724,0.723h1.448
		c0.401,0,0.725-0.322,0.725-0.723S32.964,22.431,32.563,22.431z"/>
	<path fill="#15488A" d="M32.952,14.464H20.365c-0.315,0-0.571,0.325-0.571,0.725s0.256,0.725,0.571,0.725h12.587
		c0.316,0,0.572-0.324,0.572-0.725S33.269,14.464,32.952,14.464z"/>
	<path fill="#15488A" d="M32.952,18.811H20.365c-0.315,0-0.571,0.324-0.571,0.725c0,0.399,0.256,0.725,0.571,0.725h12.587
		c0.316,0,0.572-0.325,0.572-0.725C33.524,19.135,33.269,18.811,32.952,18.811z"/>
</g>
</svg>
