<?xml version="1.0" encoding="utf-8"?>
<!-- Generator: Adobe Illustrator 16.0.0, SVG Export Plug-In . SVG Version: 6.00 Build 0)  -->
<!DOCTYPE svg PUBLIC "-//W3C//DTD SVG 1.1//EN" "http://www.w3.org/Graphics/SVG/1.1/DTD/svg11.dtd">
<svg version="1.1" id="Layer_1" xmlns="http://www.w3.org/2000/svg" xmlns:xlink="http://www.w3.org/1999/xlink" x="0px" y="0px"
	 width="13px" height="13px" viewBox="0 0 13 13" enable-background="new 0 0 13 13" xml:space="preserve">
<path fill="#0BD600" d="M0.813,12.469c0.158,0.162,0.416,0.162,0.578,0L11.916,1.942v4.322c0,0.228,0.182,0.408,0.41,0.408
	s0.41-0.181,0.41-0.408V0.956c0-0.111-0.049-0.217-0.121-0.29c-0.074-0.072-0.18-0.118-0.289-0.118H7.018
	c-0.229,0-0.408,0.181-0.408,0.408c0,0.229,0.18,0.408,0.408,0.408h4.32L0.813,11.893C0.65,12.053,0.65,12.309,0.813,12.469z"/>
</svg>
