<?xml version="1.0" encoding="utf-8"?>
<!-- Generator: Adobe Illustrator 16.0.0, SVG Export Plug-In . SVG Version: 6.00 Build 0)  -->
<!DOCTYPE svg PUBLIC "-//W3C//DTD SVG 1.1//EN" "http://www.w3.org/Graphics/SVG/1.1/DTD/svg11.dtd">
<svg version="1.1" id="Layer_1" xmlns="http://www.w3.org/2000/svg" xmlns:xlink="http://www.w3.org/1999/xlink" x="0px" y="0px"
	 width="40px" height="40px" viewBox="0 0 40 40" enable-background="new 0 0 40 40" xml:space="preserve">
<g>
	<path fill="#15488A" d="M34.962,12.154L23.675,0.867C23.612,0.805,23.528,0.77,23.44,0.77H8.591c-1.463,0-2.648,1.188-2.648,2.648
		v33.164c0,1.461,1.186,2.648,2.648,2.648h23.82c1.461,0,2.646-1.188,2.646-2.648v-24.19C35.058,12.303,35.026,12.218,34.962,12.154
		z M32.411,38.562H8.591c-1.094,0-1.98-0.888-1.98-1.979V9.727h4.836c0.186,0,0.334-0.15,0.334-0.335
		c0-0.186-0.148-0.336-0.334-0.336H6.61V6.064h9.562c0.187,0,0.335-0.149,0.335-0.335c0-0.185-0.148-0.334-0.335-0.334H6.61V3.418
		c0-1.091,0.887-1.979,1.98-1.979h14.711L34.39,12.53v23.813h-7.901c-0.186,0-0.335,0.15-0.335,0.336
		c0,0.184,0.149,0.332,0.335,0.332h7.853C34.146,37.896,33.354,38.562,32.411,38.562z"/>
	<path fill="#15488A" d="M30.438,33.161V17.464c0-1.054-0.858-1.91-1.909-1.91H12.829c-1.051,0-1.907,0.856-1.907,1.91v15.697
		c0,1.053,0.856,1.909,1.907,1.909h15.699C29.579,35.071,30.438,34.214,30.438,33.161z M28.528,34.401h-2.572V23.206h3.813v9.955
		C29.77,33.844,29.212,34.401,28.528,34.401z M19.761,23.206h5.525v6.261H15.194V16.224h2.656v5.071
		C17.851,22.349,18.707,23.206,19.761,23.206z M15.194,30.137h5.051v4.265h-5.051V30.137z M20.916,30.137h4.37v4.265h-4.37V30.137z
		 M29.77,17.464v5.071H19.761c-0.684,0-1.239-0.555-1.239-1.24v-5.071h10.007C29.212,16.224,29.77,16.78,29.77,17.464z
		 M12.829,16.224h1.695v5.567h-2.934v-4.327C11.591,16.78,12.146,16.224,12.829,16.224z M11.591,33.161v-10.7h2.934v11.94h-1.695
		C12.146,34.401,11.591,33.844,11.591,33.161z"/>
	<path fill="#15488A" d="M14.203,9.727h4.409c0.188,0,0.334-0.15,0.334-0.335c0-0.186-0.146-0.336-0.334-0.336h-4.409
		c-0.184,0-0.337,0.15-0.337,0.336C13.866,9.576,14.02,9.727,14.203,9.727z"/>
</g>
</svg>
