<?xml version="1.0" encoding="utf-8"?>
<!-- Generator: Adobe Illustrator 16.0.0, SVG Export Plug-In . SVG Version: 6.00 Build 0)  -->
<!DOCTYPE svg PUBLIC "-//W3C//DTD SVG 1.1//EN" "http://www.w3.org/Graphics/SVG/1.1/DTD/svg11.dtd">
<svg version="1.1" id="Layer_1" xmlns="http://www.w3.org/2000/svg" xmlns:xlink="http://www.w3.org/1999/xlink" x="0px" y="0px"
	 width="13px" height="13px" viewBox="0 0 13 13" enable-background="new 0 0 13 13" xml:space="preserve">
<path fill="#0BD600" d="M12.063,19.219c0.158,0.162,0.416,0.162,0.578,0L23.166,8.691v4.322c0,0.229,0.182,0.408,0.41,0.408
	s0.41-0.18,0.41-0.408V7.705c0-0.111-0.049-0.217-0.121-0.289c-0.074-0.072-0.18-0.119-0.289-0.119h-5.309
	c-0.229,0-0.408,0.182-0.408,0.408c0,0.229,0.18,0.408,0.408,0.408h4.32L12.063,18.643C11.9,18.803,11.9,19.059,12.063,19.219z"/>
<path fill="#FF0000" d="M12.694,0.668c-0.158-0.162-0.416-0.162-0.578,0L1.591,11.195V6.874c0-0.228-0.182-0.408-0.41-0.408
	s-0.41,0.18-0.41,0.408v5.308c0,0.111,0.049,0.218,0.121,0.29c0.074,0.072,0.18,0.119,0.289,0.119h5.309
	c0.229,0,0.408-0.182,0.408-0.409c0-0.229-0.18-0.407-0.408-0.407h-4.32L12.694,1.245C12.856,1.085,12.856,0.828,12.694,0.668z"/>
</svg>
