<?xml version="1.0" encoding="utf-8"?>
<!-- Generator: Adobe Illustrator 16.0.0, SVG Export Plug-In . SVG Version: 6.00 Build 0)  -->
<!DOCTYPE svg PUBLIC "-//W3C//DTD SVG 1.1//EN" "http://www.w3.org/Graphics/SVG/1.1/DTD/svg11.dtd">
<svg version="1.1" id="Capa_1" xmlns="http://www.w3.org/2000/svg" xmlns:xlink="http://www.w3.org/1999/xlink" x="0px" y="0px"
	 width="150px" height="150px" viewBox="0 0 150 150" enable-background="new 0 0 150 150" xml:space="preserve">
<linearGradient id="SVGID_1_" gradientUnits="userSpaceOnUse" x1="927.5645" y1="-726.2446" x2="1122.3551" y2="-726.2446" gradientTransform="matrix(0.5667 0 0 -0.5667 -507.4928 -366.0627)">
	<stop  offset="0" style="stop-color:#4761AC"/>
	<stop  offset="1" style="stop-color:#54C2EF"/>
</linearGradient>
<path fill="url(#SVGID_1_)" d="M60.601,45.201h25.5v0.598h-25.5V45.201z"/>
<linearGradient id="SVGID_2_" gradientUnits="userSpaceOnUse" x1="927.5645" y1="-719.4746" x2="1122.3635" y2="-719.4746" gradientTransform="matrix(0.5667 0 0 -0.5667 -507.4928 -366.0627)">
	<stop  offset="0" style="stop-color:#4761AC"/>
	<stop  offset="1" style="stop-color:#54C2EF"/>
</linearGradient>
<path fill="url(#SVGID_2_)" d="M60.601,41.365h25.5v0.598h-25.5V41.365z"/>
<g>
	
		<linearGradient id="SVGID_3_" gradientUnits="userSpaceOnUse" x1="971.6133" y1="-833.7129" x2="1081.9786" y2="-833.7129" gradientTransform="matrix(0.5667 0 0 -0.5667 -507.4928 -366.0627)">
		<stop  offset="0" style="stop-color:#4761AC"/>
		<stop  offset="1" style="stop-color:#54C2EF"/>
	</linearGradient>
	<path fill="url(#SVGID_3_)" d="M72.319,105.371h4.129v2.063h-4.129V105.371z"/>
	
		<linearGradient id="SVGID_4_" gradientUnits="userSpaceOnUse" x1="971.625" y1="-759.0693" x2="1081.973" y2="-759.0693" gradientTransform="matrix(0.5667 0 0 -0.5667 -507.4928 -366.0627)">
		<stop  offset="0" style="stop-color:#4761AC"/>
		<stop  offset="1" style="stop-color:#54C2EF"/>
	</linearGradient>
	<path fill="url(#SVGID_4_)" d="M62.003,63.07h4.127v2.063h-4.127V63.07z"/>
	
		<linearGradient id="SVGID_5_" gradientUnits="userSpaceOnUse" x1="971.6416" y1="-759.0693" x2="1081.9452" y2="-759.0693" gradientTransform="matrix(0.5667 0 0 -0.5667 -507.4928 -366.0627)">
		<stop  offset="0" style="stop-color:#4761AC"/>
		<stop  offset="1" style="stop-color:#54C2EF"/>
	</linearGradient>
	<path fill="url(#SVGID_5_)" d="M68.193,63.07h4.126v2.063h-4.126V63.07z"/>
	
		<linearGradient id="SVGID_6_" gradientUnits="userSpaceOnUse" x1="971.6611" y1="-766.3501" x2="1081.9352" y2="-766.3501" gradientTransform="matrix(0.5667 0 0 -0.5667 -507.4928 -366.0627)">
		<stop  offset="0" style="stop-color:#4761AC"/>
		<stop  offset="1" style="stop-color:#54C2EF"/>
	</linearGradient>
	<path fill="url(#SVGID_6_)" d="M76.448,67.195h2.063v2.065h-2.063V67.195z"/>
	
		<linearGradient id="SVGID_7_" gradientUnits="userSpaceOnUse" x1="971.6465" y1="-764.5308" x2="1081.9501" y2="-764.5308" gradientTransform="matrix(0.5667 0 0 -0.5667 -507.4928 -366.0627)">
		<stop  offset="0" style="stop-color:#4761AC"/>
		<stop  offset="1" style="stop-color:#54C2EF"/>
	</linearGradient>
	<path fill="url(#SVGID_7_)" d="M80.575,65.133h2.063v4.127h-2.063V65.133z"/>
	
		<linearGradient id="SVGID_8_" gradientUnits="userSpaceOnUse" x1="971.6084" y1="-762.7104" x2="1081.9712" y2="-762.7104" gradientTransform="matrix(0.5667 0 0 -0.5667 -507.4928 -366.0627)">
		<stop  offset="0" style="stop-color:#4761AC"/>
		<stop  offset="1" style="stop-color:#54C2EF"/>
	</linearGradient>
	<path fill="url(#SVGID_8_)" d="M84.702,63.07h2.063v6.19h-2.063V63.07z"/>
	
		<linearGradient id="SVGID_9_" gradientUnits="userSpaceOnUse" x1="971.6279" y1="-788.1992" x2="1081.9601" y2="-788.1992" gradientTransform="matrix(0.5667 0 0 -0.5667 -507.4928 -366.0627)">
		<stop  offset="0" style="stop-color:#4761AC"/>
		<stop  offset="1" style="stop-color:#54C2EF"/>
	</linearGradient>
	<path fill="url(#SVGID_9_)" d="M44.462,76.482h13.414v2.063h-8.256c-0.569,0-1.032,0.463-1.032,1.032s0.463,1.032,1.032,1.032
		h8.256v25.796c0.002,2.846,2.311,5.153,5.158,5.157h22.697c2.85-0.004,5.156-2.313,5.156-5.157v-9.287h11.354
		c0.569,0,1.03-0.464,1.03-1.033V73.387c0-0.108-0.017-0.218-0.052-0.323c-0.008-0.013-0.016-0.025-0.021-0.039
		c-0.012-0.039-0.035-0.075-0.059-0.11c-0.035-0.075-0.081-0.143-0.133-0.207c-0.029-0.031-0.058-0.06-0.088-0.089
		c-0.065-0.054-0.133-0.101-0.209-0.138c-0.035-0.019-0.069-0.039-0.102-0.052c-0.116-0.046-0.244-0.071-0.368-0.073H90.888V54.815
		c0-2.847-2.307-5.156-5.155-5.158H63.035c-2.847,0.002-5.156,2.311-5.158,5.158v19.603H44.462c-0.569,0-1.032,0.463-1.032,1.032
		C43.43,76.02,43.894,76.482,44.462,76.482L44.462,76.482z M88.829,106.405c0,1.711-1.387,3.094-3.098,3.094H63.035
		c-1.709,0-3.097-1.383-3.097-3.094v-3.097h28.892V106.405z M70.256,95.055V75.45l14.856,11.146c0.367,0.274,0.875,0.274,1.242,0
		L101.21,75.45v19.604H70.256z M85.732,84.479L72.319,74.418h26.826L85.732,84.479z M59.938,54.814c0-1.709,1.388-3.095,3.097-3.095
		h22.697c1.711,0,3.097,1.386,3.097,3.095v4.129H59.938V54.814z M59.938,61.005h28.891v11.35H69.226
		c-0.126,0.002-0.25,0.027-0.366,0.073c-0.035,0.016-0.069,0.033-0.103,0.054c-0.073,0.035-0.143,0.082-0.205,0.138
		c-0.033,0.027-0.062,0.058-0.091,0.089c-0.054,0.062-0.101,0.132-0.136,0.205c-0.023,0.037-0.041,0.074-0.058,0.11
		c-0.005,0.014-0.015,0.025-0.019,0.039c-0.037,0.107-0.052,0.215-0.054,0.323V88.86h-5.159c-0.569,0-1.032,0.464-1.032,1.032
		c0,0.574,0.463,1.031,1.032,1.031h5.159v2.065h-3.095c-0.571,0-1.032,0.461-1.032,1.034c0,0.564,0.461,1.029,1.032,1.029h3.095
		v1.029c0,0.569,0.462,1.033,1.032,1.033h19.604v4.127H59.938V80.609h6.192c0.571,0,1.032-0.463,1.032-1.032
		s-0.461-1.032-1.032-1.032h-6.192v-2.063h6.192c0.571,0,1.032-0.463,1.032-1.032c0-0.569-0.461-1.032-1.032-1.032h-6.192V61.005z"
		/>
</g>
<g opacity="0.5">
	<g>
		<g>
			<g>
				<path fill="#54C2EF" d="M103.351,131.201c-0.604-0.607-1.446-0.96-2.307-0.96s-1.708,0.349-2.312,0.96
					c-0.607,0.607-0.961,1.447-0.961,2.309c0,0.862,0.354,1.703,0.961,2.313c0.604,0.608,1.451,0.956,2.312,0.956
					s1.702-0.348,2.307-0.956c0.608-0.61,0.96-1.451,0.96-2.313C104.311,132.648,103.96,131.809,103.351,131.201z"/>
			</g>
		</g>
		<g>
			<g>
				<path fill="#54C2EF" d="M130.365,42.918c-0.615-0.608-1.459-0.956-2.318-0.956c-0.855,0-1.703,0.348-2.309,0.956
					c-0.606,0.606-0.959,1.454-0.959,2.311c0,0.862,0.353,1.706,0.959,2.313c0.604,0.605,1.453,0.958,2.309,0.958
					c0.859,0,1.703-0.349,2.318-0.958c0.604-0.608,0.951-1.452,0.951-2.313C131.316,44.371,130.969,43.524,130.365,42.918z"/>
			</g>
		</g>
		<g>
			<g>
				<path fill="#54C2EF" d="M27.703,71.471c-2.334,0-4.229,1.895-4.229,4.231c0,2.329,1.895,4.228,4.229,4.228
					s4.229-1.898,4.229-4.228C31.932,73.366,30.037,71.471,27.703,71.471z M27.703,79.031c-1.839,0-3.331-1.492-3.331-3.329
					c0-1.841,1.492-3.333,3.331-3.333c1.835,0,3.331,1.493,3.331,3.333C31.034,77.539,29.538,79.031,27.703,79.031z"/>
			</g>
		</g>
		<g>
			<g>
				<path fill="#54C2EF" d="M134.125,67.235c-2.071,0-3.744,1.684-3.744,3.74c0,2.062,1.673,3.74,3.744,3.74
					c2.055,0,3.73-1.678,3.73-3.74C137.855,68.919,136.18,67.235,134.125,67.235z M134.125,73.921c-1.635,0-2.946-1.322-2.946-2.946
					c0-1.62,1.313-2.942,2.946-2.942c1.613,0,2.934,1.322,2.934,2.942C137.057,72.599,135.738,73.921,134.125,73.921z"/>
			</g>
		</g>
		<g>
			<g>
				<path fill="#54C2EF" d="M26.156,105.665c-0.604-0.606-1.45-0.952-2.31-0.952c-0.859,0-1.703,0.346-2.311,0.952
					c-0.611,0.615-0.96,1.452-0.96,2.323c0,0.855,0.349,1.691,0.96,2.303c0.608,0.616,1.452,0.96,2.311,0.96
					c0.86,0,1.706-0.344,2.31-0.96c0.609-0.611,0.96-1.447,0.96-2.303C27.116,107.117,26.766,106.281,26.156,105.665z"/>
			</g>
		</g>
		<g>
			<g>
				<g>
					<path fill="#54C2EF" d="M17.417,54.321c-0.733,0-1.335,0.594-1.335,1.328v1.42c0,0.736,0.602,1.332,1.335,1.332
						c0.732,0,1.33-0.596,1.33-1.332v-1.42C18.747,54.915,18.149,54.321,17.417,54.321z"/>
				</g>
			</g>
			<g>
				<g>
					<path fill="#54C2EF" d="M17.417,60.778c-0.733,0-1.335,0.596-1.335,1.332v1.421c0,0.735,0.602,1.332,1.335,1.332
						c0.732,0,1.33-0.596,1.33-1.332V62.11C18.747,61.374,18.149,60.778,17.417,60.778z"/>
				</g>
			</g>
			<g>
				<g>
					<path fill="#54C2EF" d="M21.356,58.26h-1.423c-0.736,0-1.332,0.592-1.332,1.334c0,0.729,0.596,1.326,1.332,1.326h1.423
						c0.735,0,1.332-0.596,1.332-1.326C22.688,58.852,22.092,58.26,21.356,58.26z"/>
				</g>
			</g>
			<g>
				<g>
					<path fill="#54C2EF" d="M14.897,58.26h-1.423c-0.733,0-1.33,0.592-1.33,1.334c0,0.729,0.596,1.326,1.33,1.326h1.423
						c0.732,0,1.33-0.596,1.33-1.326C16.226,58.852,15.629,58.26,14.897,58.26z"/>
				</g>
			</g>
		</g>
		<g>
			<g>
				<g>
					<path fill="#54C2EF" d="M130.381,83.064c-0.551,0-0.995,0.441-0.995,0.992v1.061c0,0.546,0.444,0.991,0.995,0.991
						c0.546,0,0.99-0.445,0.99-0.991v-1.061C131.371,83.506,130.926,83.064,130.381,83.064z"/>
				</g>
			</g>
			<g>
				<g>
					<path fill="#54C2EF" d="M130.381,87.881c-0.551,0-0.995,0.445-0.995,0.99v1.063c0,0.55,0.444,0.99,0.995,0.99
						c0.546,0,0.99-0.44,0.99-0.99v-1.063C131.371,88.326,130.926,87.881,130.381,87.881z"/>
				</g>
			</g>
			<g>
				<g>
					<path fill="#54C2EF" d="M133.314,85.999h-1.057c-0.55,0-0.995,0.445-0.995,0.995c0,0.546,0.445,0.991,0.995,0.991h1.057
						c0.547,0,0.996-0.445,0.996-0.991C134.309,86.445,133.861,85.999,133.314,85.999z"/>
				</g>
			</g>
			<g>
				<g>
					<path fill="#54C2EF" d="M128.5,85.999h-1.063c-0.546,0-0.986,0.445-0.986,0.995c0,0.546,0.44,0.991,0.986,0.991h1.063
						c0.549,0,0.99-0.445,0.99-0.991C129.49,86.445,129.049,85.999,128.5,85.999z"/>
				</g>
			</g>
		</g>
		<g>
			<g>
				<path fill="#54C2EF" d="M91.443,132.582H73.403c-1.156,0-2.099,0.939-2.099,2.1s0.943,2.098,2.099,2.098h18.041
					c1.153,0,2.094-0.938,2.094-2.098C93.537,133.523,92.597,132.582,91.443,132.582z"/>
			</g>
		</g>
		<g>
			<g>
				<path fill="#54C2EF" d="M65.185,133.201c-0.387-0.395-0.925-0.619-1.479-0.619c-0.552,0-1.092,0.225-1.481,0.619
					c-0.395,0.389-0.617,0.93-0.617,1.479c0,0.555,0.223,1.092,0.617,1.486c0.389,0.387,0.929,0.611,1.481,0.611
					c0.554,0,1.092-0.225,1.479-0.611c0.396-0.395,0.619-0.933,0.619-1.486C65.804,134.131,65.581,133.59,65.185,133.201z"/>
			</g>
		</g>
		<g>
			<g>
				<path fill="#54C2EF" d="M54.008,132.582H35.972c-1.157,0-2.098,0.939-2.098,2.1s0.941,2.098,2.098,2.098h18.036
					c1.156,0,2.095-0.938,2.095-2.098C56.103,133.523,55.164,132.582,54.008,132.582z"/>
			</g>
		</g>
	</g>
</g>
<g opacity="0.7">
	
		<image overflow="visible" opacity="0.27" width="58" height="26" xlink:href="47938025.png"  transform="matrix(1 0 0 1 45.5 101.5)">
	</image>
	<g>
		<ellipse fill="#C4C4C4" cx="74.384" cy="114.667" rx="16.833" ry="0.5"/>
	</g>
</g>
</svg>
