<?xml version="1.0" encoding="utf-8"?>
<!-- Generator: Adobe Illustrator 16.0.0, SVG Export Plug-In . SVG Version: 6.00 Build 0)  -->
<!DOCTYPE svg PUBLIC "-//W3C//DTD SVG 1.1//EN" "http://www.w3.org/Graphics/SVG/1.1/DTD/svg11.dtd">
<svg version="1.1" id="Layer_1" xmlns="http://www.w3.org/2000/svg" xmlns:xlink="http://www.w3.org/1999/xlink" x="0px" y="0px"
	 width="34px" height="34px" viewBox="0 0 34 34" enable-background="new 0 0 34 34" xml:space="preserve">
<g>
	<g>
		<path fill="#15488A" d="M32.029,13.345h-3.078c-0.493,0-0.901-0.272-1.092-0.729c-0.187-0.457-0.094-0.938,0.257-1.288
			l2.176-2.174c0.319-0.32,0.495-0.746,0.495-1.198c0-0.453-0.176-0.877-0.495-1.198L27.52,3.986c-0.643-0.64-1.758-0.641-2.398,0
			L22.946,6.16c-0.349,0.349-0.831,0.447-1.286,0.257c-0.456-0.189-0.729-0.597-0.729-1.091V2.249c0-0.934-0.759-1.693-1.692-1.693
			h-3.922c-0.935,0-1.692,0.759-1.692,1.693v3.078c0,0.494-0.273,0.902-0.73,1.091c-0.457,0.19-0.937,0.092-1.287-0.257L9.432,3.986
			c-0.642-0.641-1.756-0.64-2.396,0L4.262,6.759c-0.319,0.32-0.497,0.745-0.497,1.198c0,0.452,0.177,0.877,0.497,1.198l2.176,2.174
			c0.348,0.35,0.444,0.831,0.254,1.288c-0.188,0.457-0.595,0.729-1.09,0.729H2.525c-0.934,0-1.694,0.76-1.694,1.693v3.922
			c0,0.935,0.76,1.693,1.694,1.693h3.078c0.495,0,0.902,0.271,1.09,0.729c0.19,0.457,0.094,0.938-0.254,1.288l-2.176,2.174
			c-0.319,0.32-0.497,0.747-0.497,1.198c0,0.454,0.177,0.878,0.497,1.198l2.773,2.773c0.64,0.64,1.755,0.642,2.396,0l2.175-2.176
			c0.35-0.349,0.829-0.444,1.287-0.256c0.458,0.189,0.73,0.598,0.73,1.091v3.078c0,0.933,0.757,1.691,1.692,1.691h3.921
			c0.933,0,1.692-0.759,1.692-1.691v-3.078c0-0.493,0.273-0.901,0.73-1.091c0.456-0.19,0.938-0.093,1.286,0.256l2.175,2.176
			c0.641,0.64,1.756,0.639,2.396,0l2.774-2.773c0.317-0.32,0.494-0.744,0.494-1.198c0-0.451-0.177-0.876-0.494-1.198l-2.179-2.174
			c-0.348-0.351-0.44-0.831-0.255-1.288c0.189-0.457,0.6-0.729,1.093-0.729h3.078c0.932,0,1.692-0.759,1.692-1.693v-3.922
			C33.722,14.105,32.961,13.345,32.029,13.345z M32.503,18.961c0,0.262-0.213,0.476-0.474,0.476h-3.078
			c-0.99,0-1.839,0.568-2.217,1.48c-0.38,0.914-0.18,1.916,0.519,2.616l2.177,2.176c0.186,0.185,0.186,0.485,0,0.671l-2.772,2.772
			c-0.187,0.186-0.486,0.188-0.673,0l-2.174-2.176c-0.703-0.697-1.702-0.897-2.616-0.52s-1.481,1.229-1.481,2.217v3.078
			c0,0.261-0.213,0.474-0.475,0.474h-3.922c-0.264,0-0.476-0.213-0.476-0.474v-3.078c0-0.988-0.568-1.839-1.48-2.217
			c-0.306-0.126-0.624-0.188-0.934-0.188c-0.618,0-1.217,0.242-1.681,0.708l-2.177,2.176c-0.185,0.188-0.487,0.186-0.673,0
			L5.124,26.38c-0.186-0.186-0.186-0.488,0-0.673l2.175-2.174c0.698-0.7,0.898-1.702,0.521-2.616c-0.38-0.912-1.228-1.48-2.218-1.48
			H2.525c-0.261,0-0.473-0.214-0.473-0.476v-3.922c0-0.262,0.212-0.475,0.473-0.475h3.078c0.99,0,1.838-0.567,2.218-1.481
			c0.377-0.914,0.177-1.916-0.521-2.615L5.124,8.292c-0.186-0.186-0.186-0.487,0-0.673l2.771-2.773c0.187-0.186,0.488-0.186,0.673,0
			l2.177,2.175c0.696,0.699,1.698,0.898,2.615,0.52c0.912-0.377,1.48-1.228,1.48-2.216V2.249c0-0.262,0.212-0.475,0.476-0.475h3.921
			c0.263,0,0.476,0.213,0.476,0.475v3.078c0,0.988,0.567,1.838,1.481,2.216c0.914,0.379,1.916,0.179,2.616-0.52l2.174-2.175
			c0.187-0.186,0.486-0.186,0.673,0l2.772,2.773c0.186,0.186,0.186,0.487,0,0.672l-2.177,2.175
			c-0.697,0.699-0.898,1.702-0.519,2.615c0.378,0.914,1.227,1.481,2.217,1.481h3.078c0.261-0.001,0.474,0.212,0.474,0.474V18.961z"
			/>
		<path fill="#15488A" d="M17.277,11.518c-3.024,0-5.482,2.459-5.482,5.482s2.458,5.482,5.482,5.482c3.021,0,5.481-2.46,5.481-5.482
			S20.299,11.518,17.277,11.518z M17.277,21.265c-2.352,0-4.264-1.915-4.264-4.265c0-2.35,1.913-4.264,4.264-4.264
			c2.349,0,4.265,1.914,4.265,4.264C21.542,19.35,19.626,21.265,17.277,21.265z"/>
	</g>
</g>
</svg>
